<svg width="250" height="44" viewBox="0 0 250 44" fill="none" xmlns="http://www.w3.org/2000/svg">
<path d="M37.7056 40.9721C37.7056 40.9721 34.143 31.6535 37.7056 28.1157C41.2434 24.6025 50.4727 28.1157 50.4727 28.1157L50.4727 15.795C43.4195 15.795 37.7056 10.0811 37.7056 3.02795L25.3849 3.02795C25.3849 3.02795 28.9104 12.2695 25.3849 15.795C21.8594 19.3206 12.6178 15.795 12.6178 15.795L12.6178 28.1157C19.671 28.1157 25.3849 33.9189 25.3849 40.9721L37.7056 40.9721Z" fill="#54408C"/>
<path d="M74.2129 14.4084L68.1132 33H63.1996L71.5327 10.573H74.6596L74.2129 14.4084ZM79.2805 33L73.1655 14.4084L72.6726 10.573H75.8302L84.2096 33H79.2805ZM79.0033 24.6515V28.2712H67.1582V24.6515H79.0033ZM89.9408 10.573V33H85.3352V10.573H89.9408ZM101.479 21.6325V25.1136H92.7762V21.6325H101.479ZM114.219 10.573V33H109.613V10.573H114.219ZM121.119 10.573V14.1927H102.82V10.573H121.119ZM128.868 29.2416V21.8173C128.868 21.2833 128.781 20.8264 128.606 20.4464C128.432 20.0562 128.16 19.7533 127.79 19.5376C127.431 19.322 126.963 19.2142 126.388 19.2142C125.895 19.2142 125.469 19.3014 125.11 19.476C124.751 19.6403 124.473 19.8816 124.278 20.2C124.083 20.508 123.985 20.8726 123.985 21.2936H119.549C119.549 20.585 119.714 19.9124 120.042 19.2758C120.371 18.6391 120.848 18.0795 121.475 17.5968C122.101 17.1039 122.846 16.7188 123.708 16.4416C124.581 16.1643 125.557 16.0257 126.635 16.0257C127.929 16.0257 129.079 16.2413 130.085 16.6726C131.091 17.1039 131.882 17.7509 132.457 18.6134C133.043 19.476 133.335 20.5542 133.335 21.8481V28.9798C133.335 29.8937 133.392 30.6433 133.505 31.2286C133.618 31.8037 133.782 32.3069 133.998 32.7381V33H129.515C129.3 32.5482 129.135 31.9834 129.022 31.3057C128.92 30.6176 128.868 29.9296 128.868 29.2416ZM129.454 22.8493L129.484 25.36H127.005C126.419 25.36 125.911 25.4268 125.48 25.5603C125.048 25.6938 124.694 25.8837 124.417 26.1302C124.14 26.3664 123.934 26.6436 123.801 26.962C123.677 27.2803 123.616 27.6294 123.616 28.0094C123.616 28.3893 123.703 28.7333 123.878 29.0414C124.052 29.3392 124.304 29.5754 124.632 29.7499C124.961 29.9142 125.346 29.9964 125.788 29.9964C126.455 29.9964 127.035 29.8629 127.528 29.5959C128.021 29.3289 128.401 29.0003 128.668 28.6101C128.945 28.2199 129.089 27.8502 129.099 27.5011L130.27 29.3803C130.106 29.8013 129.88 30.2377 129.592 30.6895C129.315 31.1413 128.961 31.5675 128.529 31.968C128.098 32.3582 127.58 32.6817 126.974 32.9384C126.368 33.1848 125.649 33.3081 124.817 33.3081C123.76 33.3081 122.799 33.0976 121.937 32.6765C121.085 32.2452 120.407 31.6548 119.904 30.9052C119.411 30.1453 119.164 29.2827 119.164 28.3174C119.164 27.4446 119.329 26.6693 119.657 25.9916C119.986 25.3138 120.468 24.7439 121.105 24.2818C121.752 23.8094 122.558 23.4552 123.523 23.219C124.489 22.9725 125.608 22.8493 126.881 22.8493H129.454ZM140.175 9.34072V33H135.724V9.34072H140.175ZM150.25 33.3081C148.957 33.3081 147.796 33.1027 146.769 32.6919C145.742 32.2709 144.87 31.6907 144.151 30.9514C143.442 30.212 142.898 29.3546 142.518 28.379C142.138 27.3932 141.948 26.3458 141.948 25.2368V24.6207C141.948 23.3576 142.128 22.2024 142.487 21.155C142.847 20.1075 143.36 19.1988 144.027 18.4286C144.705 17.6584 145.527 17.068 146.492 16.6572C147.457 16.2362 148.546 16.0257 149.757 16.0257C150.938 16.0257 151.986 16.2208 152.9 16.611C153.814 17.0012 154.579 17.5557 155.195 18.2746C155.821 18.9934 156.294 19.856 156.612 20.8623C156.93 21.8584 157.089 22.9674 157.089 24.1894V26.0378H143.843V23.0804H152.73V22.7415C152.73 22.1254 152.617 21.576 152.391 21.0933C152.176 20.6004 151.847 20.2102 151.406 19.9227C150.964 19.6352 150.399 19.4914 149.711 19.4914C149.126 19.4914 148.623 19.6198 148.202 19.8765C147.781 20.1332 147.437 20.4926 147.17 20.9547C146.913 21.4168 146.718 21.9611 146.584 22.5875C146.461 23.2036 146.4 23.8813 146.4 24.6207V25.2368C146.4 25.9043 146.492 26.5204 146.677 27.0852C146.872 27.65 147.144 28.1377 147.493 28.5485C147.853 28.9592 148.284 29.2776 148.787 29.5035C149.301 29.7294 149.881 29.8423 150.528 29.8423C151.329 29.8423 152.073 29.6883 152.761 29.3803C153.459 29.0619 154.06 28.5844 154.563 27.9478L156.72 30.289C156.371 30.7922 155.893 31.2748 155.287 31.7369C154.692 32.199 153.973 32.579 153.131 32.8768C152.289 33.1643 151.329 33.3081 150.25 33.3081Z" fill="#54408C"/>
</svg>
